<svg width="317" height="351" viewBox="0 0 317 351" fill="none" xmlns="http://www.w3.org/2000/svg">
<g filter="url(#filter0_d_2327_106)">
<rect x="28" width="242" height="290" fill="white"/>
<rect x="31.5" y="3.5" width="235" height="283" stroke="black" stroke-width="7"/>
</g>
<g filter="url(#filter1_d_2327_106)">
<path d="M282.085 315.179C280.714 312.81 277.678 311.998 275.303 313.366C272.929 314.734 272.115 317.764 273.486 320.133L285.364 340.661C286.735 343.03 289.771 343.842 292.146 342.474C294.52 341.106 295.334 338.076 293.963 335.707L282.085 315.179Z" fill="#DD7832"/>
<path d="M219.749 320.134C221.119 317.765 220.306 314.735 217.931 313.367C215.557 312 212.52 312.811 211.15 315.181L199.271 335.708C197.9 338.077 198.714 341.107 201.089 342.475C203.463 343.843 206.499 343.031 207.87 340.662L219.749 320.134Z" fill="#DD7832"/>
<path d="M271.072 250.893L271.074 250.894C273.488 252.284 276.575 251.459 277.968 249.051L290.044 228.181C291.438 225.772 290.611 222.693 288.197 221.302L288.195 221.301C285.781 219.91 282.694 220.735 281.3 223.144L269.224 244.014C267.831 246.422 268.658 249.502 271.072 250.893Z" fill="#7E8596"/>
<path d="M299.086 236.696C302.079 238.421 305.892 236.755 306.665 233.392C308.822 223.995 304.731 213.902 295.925 208.831C287.119 203.758 276.316 205.269 269.237 211.832C266.705 214.179 267.167 218.308 270.16 220.033L299.086 236.696Z" fill="#F8B328"/>
<path d="M222.156 250.894L222.158 250.893C224.572 249.502 225.399 246.422 224.006 244.014L211.93 223.144C210.536 220.736 207.449 219.91 205.035 221.301L205.033 221.302C202.619 222.693 201.792 225.773 203.186 228.181L215.262 249.051C216.656 251.459 219.742 252.285 222.156 250.894Z" fill="#7E8596"/>
<path d="M223.071 220.033C226.065 218.308 226.526 214.18 223.995 211.832C216.915 205.271 206.11 203.76 197.306 208.834C188.5 213.905 184.409 223.995 186.567 233.395C187.339 236.757 191.152 238.421 194.146 236.699L223.071 220.035V220.033Z" fill="#F8B328"/>
<path d="M250.431 205.807H242.8V246.594H250.431V205.807Z" fill="#7E8596"/>
<path d="M256.51 209.614C258.617 209.614 260.325 207.909 260.325 205.807C260.325 203.704 258.617 202 256.51 202H236.722C234.615 202 232.906 203.704 232.906 205.807C232.906 207.909 234.615 209.614 236.722 209.614H256.51Z" fill="#CDD2E1"/>
<path d="M246.616 332.687C276.992 332.687 301.617 308.117 301.617 277.808C301.617 247.499 276.992 222.928 246.616 222.928C216.239 222.928 191.614 247.499 191.614 277.808C191.614 308.117 216.239 332.687 246.616 332.687Z" fill="#1E83FF"/>
<path d="M291.286 277.812C291.286 278.658 291.257 279.518 291.213 280.35C290.862 286.624 289.208 292.546 286.519 297.857C285.758 299.375 284.896 300.848 283.975 302.249C280.612 307.355 276.241 311.717 271.123 315.072C269.72 316.005 268.243 316.851 266.721 317.624C261.399 320.308 255.447 321.957 249.162 322.308C248.314 322.352 247.466 322.38 246.618 322.38C245.77 322.38 244.922 322.352 244.074 322.308C237.786 321.957 231.837 320.308 226.515 317.624C224.993 316.851 223.517 316.005 222.113 315.072C216.995 311.717 212.624 307.355 209.261 302.249C208.34 300.848 207.492 299.389 206.717 297.871C204.028 292.56 202.374 286.622 202.024 280.35C201.979 279.518 201.951 278.658 201.951 277.812C201.951 276.966 201.979 276.106 202.024 275.274C202.374 269 204.028 263.064 206.717 257.754C207.492 256.236 208.34 254.762 209.275 253.362C212.624 248.255 217.009 243.894 222.127 240.538C223.531 239.62 225.007 238.774 226.529 238C231.851 235.317 237.786 233.667 244.074 233.317C244.922 233.272 245.77 233.244 246.618 233.244C247.466 233.244 248.314 233.272 249.162 233.317C255.45 233.667 261.385 235.317 266.707 238C268.229 238.774 269.705 239.62 271.109 240.538C276.227 243.894 280.612 248.255 283.961 253.362C284.896 254.762 285.744 256.236 286.519 257.754C289.208 263.064 290.862 269.003 291.213 275.274C291.257 276.106 291.286 276.966 291.286 277.812Z" fill="#F2F6FC"/>
<path d="M248.841 253.282L246.616 250.243L244.392 253.282V277.808H248.841V253.282Z" fill="#DD7832"/>
<path d="M263.822 279.868L266.46 277.808L263.822 275.747H246.616V279.868H263.822Z" fill="#DD7832"/>
<path d="M249.159 233.315V237.02C249.159 238.421 248.019 239.558 246.616 239.558C245.212 239.558 244.072 238.421 244.072 237.02V233.315C244.92 233.27 245.768 233.242 246.616 233.242C247.464 233.242 248.311 233.27 249.159 233.315Z" fill="#070606"/>
<path d="M227.447 244.695C226.234 245.395 224.685 244.972 223.983 243.762L222.127 240.538C223.531 239.619 225.007 238.773 226.529 238L228.385 241.224C229.086 242.435 228.677 243.997 227.45 244.698L227.447 244.695Z" fill="#070606"/>
<path d="M213.425 258.686C212.723 259.897 211.159 260.32 209.944 259.619L206.713 257.751C207.487 256.233 208.335 254.76 209.27 253.359L212.487 255.211C213.714 255.911 214.124 257.472 213.422 258.684L213.425 258.686Z" fill="#070606"/>
<path d="M208.293 277.812C208.293 279.213 207.153 280.35 205.749 280.35H202.021C201.977 279.518 201.948 278.658 201.948 277.812C201.948 276.966 201.977 276.106 202.021 275.274H205.749C207.153 275.274 208.293 276.412 208.293 277.812Z" fill="#070606"/>
<path d="M212.487 300.397L209.256 302.249C208.335 300.848 207.487 299.389 206.713 297.871L209.944 296.003C211.157 295.302 212.723 295.711 213.425 296.922C214.127 298.148 213.717 299.694 212.49 300.395L212.487 300.397Z" fill="#070606"/>
<path d="M228.382 314.402L226.51 317.626C224.988 316.853 223.512 316.007 222.108 315.074L223.98 311.85C224.682 310.64 226.232 310.231 227.445 310.931C228.672 311.632 229.082 313.178 228.38 314.405L228.382 314.402Z" fill="#070606"/>
<path d="M249.159 318.59V322.31C248.311 322.354 247.464 322.382 246.616 322.382C245.768 322.382 244.92 322.354 244.072 322.31V318.59C244.072 317.189 245.212 316.052 246.616 316.052C248.019 316.052 249.159 317.189 249.159 318.59Z" fill="#070606"/>
<path d="M271.121 315.072C269.717 316.005 268.24 316.851 266.719 317.624L264.847 314.4C264.145 313.173 264.555 311.627 265.782 310.927C266.995 310.227 268.544 310.636 269.263 311.846L271.118 315.07L271.121 315.072Z" fill="#070606"/>
<path d="M286.519 297.857C285.758 299.375 284.896 300.848 283.975 302.249L280.744 300.397C279.531 299.697 279.107 298.151 279.809 296.924C280.511 295.714 282.075 295.305 283.29 296.005L286.521 297.857H286.519Z" fill="#070606"/>
<path d="M291.286 277.812C291.286 278.658 291.257 279.518 291.213 280.35H287.484C286.081 280.35 284.941 279.213 284.941 277.812C284.941 276.412 286.081 275.274 287.484 275.274H291.213C291.257 276.106 291.286 276.966 291.286 277.812Z" fill="#070606"/>
<path d="M286.519 257.753L283.288 259.622C282.075 260.322 280.509 259.899 279.807 258.689C279.105 257.479 279.529 255.916 280.742 255.216L283.959 253.364C284.894 254.764 285.742 256.238 286.516 257.756L286.519 257.753Z" fill="#070606"/>
<path d="M271.107 240.538L269.251 243.762C268.549 244.973 266.999 245.396 265.786 244.695C264.559 243.981 264.15 242.435 264.852 241.222L266.707 237.998C268.229 238.771 269.705 239.617 271.109 240.536L271.107 240.538Z" fill="#070606"/>
<path d="M246.616 284.632C250.393 284.632 253.455 281.576 253.455 277.807C253.455 274.039 250.393 270.983 246.616 270.983C242.838 270.983 239.776 274.039 239.776 277.807C239.776 281.576 242.838 284.632 246.616 284.632Z" fill="#CDD2E1"/>
</g>
<rect x="58" y="43" width="182" height="10" fill="black"/>
<rect x="58" y="77" width="182" height="10" fill="black"/>
<rect x="58" y="111" width="182" height="10" fill="black"/>
<rect x="58" y="145" width="182" height="10" fill="black"/>
<path d="M9.8031 218.474L6.18008 216.249C4.30583 215.097 3.71319 212.891 4.64834 211.369L15.19 194.207C16.1252 192.685 18.3606 192.217 20.2348 193.368L23.8578 195.593C25.7321 196.745 26.3252 198.95 25.3901 200.473L14.8484 217.634C13.9132 219.157 11.6774 219.625 9.8031 218.474Z" fill="black" stroke="black" stroke-width="1.2"/>
<path d="M9.67468 203.082L88.2512 75.1619L98.4979 81.456L19.9213 209.376L9.67468 203.082Z" fill="black" stroke="black" stroke-width="1.2"/>
<path d="M9.67678 203.083L88.2533 75.1631L89.9767 76.2217L11.4001 204.142L9.67678 203.083Z" fill="black" stroke="black" stroke-width="1.2"/>
<path d="M23.2587 201.017L97.1931 80.6543L98.4978 81.4558L24.5634 201.819L23.2587 201.017Z" fill="black" stroke="black" stroke-width="1.2"/>
<path d="M7.93985 204.597L20.4607 184.213L31.8798 191.228L19.359 211.611L7.93985 204.597Z" fill="black" stroke="black" stroke-width="1.2"/>
<path d="M87.3369 79.0833C87.2078 78.942 87.1206 78.6685 87.167 78.1881C87.212 77.7229 87.3722 77.1785 87.5835 76.6388C87.7924 76.105 88.0388 75.6054 88.2347 75.2372C88.3322 75.0538 88.4165 74.9044 88.4757 74.8019C88.4913 74.775 88.5059 74.7517 88.5178 74.7315L91.1858 72.4404L99.8211 65.0209L102.314 66.5523L99.8 76.8023L98.77 80.9981C98.7546 81.0189 98.7367 81.0433 98.7163 81.0705C98.6378 81.1756 98.5235 81.3258 98.3822 81.5025C98.0981 81.8576 97.7111 82.3134 97.2897 82.7305C96.8599 83.1561 96.4309 83.5046 96.0648 83.6835C95.7829 83.8213 95.6447 83.8138 95.5717 83.7829L95.5176 83.7497C95.3369 83.5906 95.1954 83.3064 95.1185 82.8787C95.0431 82.4587 95.043 81.97 95.0824 81.4916C95.1215 81.0176 95.1973 80.5785 95.2593 80.2651C95.2903 80.1087 95.3177 79.9851 95.3358 79.9017C95.3435 79.8663 95.3532 79.8216 95.3588 79.7898C95.3603 79.7811 95.3637 79.7634 95.3659 79.7426C95.3671 79.7325 95.3685 79.7121 95.369 79.6872C95.3693 79.6762 95.3718 79.6021 95.3474 79.5135C95.3367 79.4746 95.2986 79.3469 95.1785 79.2343C95.0149 79.0812 94.792 79.04 94.5996 79.0965C94.4572 79.1383 94.3707 79.2208 94.3444 79.2469L94.2744 79.3311C94.2611 79.344 94.2411 79.3624 94.2138 79.3867C94.138 79.4544 94.0256 79.5485 93.8849 79.6592C93.6039 79.8801 93.2264 80.1558 92.8284 80.4107C92.4259 80.6685 92.0241 80.8915 91.6908 81.0219C91.5237 81.0873 91.3965 81.1199 91.3092 81.1302C91.2856 81.1329 91.2686 81.1327 91.2572 81.1326C91.2245 81.1014 91.1623 81.0204 91.1025 80.8359C91.0284 80.6072 90.9841 80.2917 90.981 79.9143C90.9748 79.1588 91.1361 78.2695 91.4217 77.5662L90.397 76.9654L90.3965 76.9663C90.3956 76.9674 90.3938 76.9697 90.3916 76.9724C90.3872 76.9779 90.3799 76.9861 90.3706 76.9973C90.3518 77.0202 90.3238 77.0548 90.2868 77.0983C90.2128 77.1854 90.1048 77.3094 89.9715 77.4548C89.7032 77.7474 89.3394 78.1176 88.9464 78.4445C88.5433 78.7797 88.1539 79.0311 87.8343 79.1355C87.5361 79.2329 87.4205 79.1746 87.3369 79.0833ZM95.3142 79.9183C95.3121 79.9231 95.3086 79.9327 95.3027 79.9444L95.2611 80.014C95.2782 79.9878 95.2978 79.9557 95.3142 79.9183ZM91.2781 81.1489L91.2765 81.1479C91.2775 81.1485 91.2793 81.1485 91.2803 81.1491L91.2781 81.1489Z" fill="black" stroke="black" stroke-width="1.2"/>
<path d="M100.777 64.1999L103.456 61.8984L102.614 65.3285L100.777 64.1999Z" fill="black" stroke="black" stroke-width="1.2"/>
<path d="M7.93956 204.597L20.4604 184.214L24.234 186.532L11.7132 206.915L7.93956 204.597Z" fill="black" stroke="black" stroke-width="1.2"/>
<mask id="path-40-inside-1_2327_106" fill="white">
<path d="M14.95 216.718C14.95 216.718 13.2311 219.936 11.2433 219.174C9.25547 218.413 8.39802 217.598 8.39802 217.598C8.39802 217.598 7.67215 216.464 9.30303 217.178C10.9327 217.893 11.6788 218.837 12.6941 217.97C13.7115 217.105 15.0835 215.396 14.95 216.718Z"/>
</mask>
<path d="M14.95 216.718C14.95 216.718 13.2311 219.936 11.2433 219.174C9.25547 218.413 8.39802 217.598 8.39802 217.598C8.39802 217.598 7.67215 216.464 9.30303 217.178C10.9327 217.893 11.6788 218.837 12.6941 217.97C13.7115 217.105 15.0835 215.396 14.95 216.718Z" fill="black"/>
<path d="M14.95 216.718L16.0085 217.284L16.1202 217.075L16.144 216.839L14.95 216.718ZM8.39802 217.598L7.38736 218.245L7.46584 218.368L7.57135 218.468L8.39802 217.598ZM9.30303 217.178L9.78541 216.079L9.78405 216.078L9.30303 217.178ZM12.6941 217.97L11.9166 217.056L11.915 217.058L12.6941 217.97ZM14.95 216.718C13.8916 216.153 13.8918 216.153 13.8919 216.152C13.892 216.152 13.8921 216.152 13.8922 216.152C13.8923 216.151 13.8925 216.151 13.8926 216.151C13.8928 216.151 13.8929 216.15 13.893 216.15C13.893 216.15 13.8927 216.151 13.8919 216.152C13.8905 216.155 13.8874 216.16 13.8829 216.168C13.8738 216.185 13.8587 216.211 13.838 216.247C13.7964 216.317 13.7329 216.421 13.6504 216.546C13.4826 216.799 13.2493 217.116 12.9748 217.403C12.3358 218.071 11.9187 218.148 11.6725 218.054L11.2433 219.174L10.814 220.295C12.5556 220.962 13.9919 219.812 14.7094 219.061C15.1131 218.639 15.4337 218.199 15.6504 217.872C15.7601 217.707 15.8464 217.566 15.9066 217.463C15.9368 217.412 15.9605 217.37 15.9776 217.34C15.9861 217.325 15.993 217.312 15.9982 217.303C16.0007 217.298 16.0029 217.294 16.0046 217.291C16.0055 217.289 16.0062 217.288 16.0069 217.287C16.0072 217.286 16.0075 217.286 16.0078 217.285C16.0079 217.285 16.0081 217.284 16.0081 217.284C16.0083 217.284 16.0085 217.284 14.95 216.718ZM11.2433 219.174L11.6725 218.054C10.7589 217.704 10.1217 217.348 9.72624 217.093C9.52831 216.965 9.39038 216.862 9.30825 216.797C9.26718 216.764 9.24002 216.741 9.22628 216.729C9.2194 216.723 9.21587 216.72 9.21563 216.72C9.21551 216.72 9.21621 216.72 9.21772 216.722C9.21848 216.722 9.21944 216.723 9.2206 216.724C9.22118 216.725 9.22182 216.726 9.2225 216.726C9.22284 216.727 9.22319 216.727 9.22356 216.727C9.22374 216.727 9.22403 216.728 9.22412 216.728C9.2244 216.728 9.22469 216.728 8.39802 217.598C7.57135 218.468 7.57165 218.468 7.57195 218.469C7.57205 218.469 7.57236 218.469 7.57257 218.469C7.57299 218.47 7.57342 218.47 7.57386 218.47C7.57476 218.471 7.5757 218.472 7.5767 218.473C7.5787 218.475 7.58092 218.477 7.58336 218.479C7.58824 218.484 7.594 218.489 7.60064 218.495C7.61393 218.507 7.63077 218.522 7.65122 218.54C7.69213 218.576 7.7475 218.622 7.81787 218.678C7.95863 218.789 8.1593 218.938 8.4242 219.109C8.95439 219.451 9.73979 219.884 10.814 220.295L11.2433 219.174ZM8.39802 217.598C9.40868 216.951 9.40891 216.952 9.40914 216.952C9.40921 216.952 9.40944 216.952 9.40958 216.953C9.40987 216.953 9.41015 216.953 9.41043 216.954C9.41097 216.955 9.41148 216.956 9.41195 216.956C9.41289 216.958 9.4137 216.959 9.41438 216.96C9.41573 216.962 9.41659 216.964 9.41704 216.964C9.41788 216.966 9.4173 216.965 9.41582 216.962C9.41211 216.956 9.40804 216.948 9.40548 216.942C9.40166 216.934 9.40833 216.946 9.41652 216.978C9.42226 217 9.44866 217.105 9.43106 217.258C9.4111 217.431 9.32705 217.699 9.07804 217.911C8.84394 218.11 8.6058 218.138 8.51788 218.142C8.43214 218.145 8.4078 218.129 8.47911 218.148C8.54277 218.166 8.65303 218.203 8.822 218.277L9.30303 217.178L9.78405 216.078C9.35094 215.889 8.87845 215.727 8.42931 215.743C8.1801 215.752 7.83023 215.821 7.52193 216.084C7.19872 216.359 7.07799 216.713 7.04684 216.983C6.99561 217.427 7.16304 217.807 7.2147 217.922C7.2547 218.012 7.29461 218.087 7.32422 218.139C7.3394 218.166 7.35282 218.189 7.3635 218.207C7.36887 218.216 7.3736 218.223 7.3776 218.23C7.37961 218.233 7.38143 218.236 7.38306 218.238C7.38387 218.24 7.38464 218.241 7.38536 218.242C7.38572 218.243 7.38606 218.243 7.3864 218.244C7.38657 218.244 7.38681 218.244 7.38689 218.244C7.38713 218.245 7.38736 218.245 8.39802 217.598ZM9.30303 217.178L8.82065 218.277C9.17219 218.431 9.48208 218.6 9.79345 218.774C10.0816 218.934 10.4293 219.133 10.7646 219.274C11.1132 219.42 11.5624 219.556 12.0765 219.508C12.6128 219.458 13.0751 219.223 13.4732 218.883L12.6941 217.97L11.915 217.058C11.8055 217.151 11.7938 217.124 11.8537 217.118C11.8914 217.114 11.8619 217.132 11.6934 217.061C11.5115 216.985 11.3036 216.868 10.9618 216.677C10.6432 216.5 10.2487 216.282 9.78541 216.079L9.30303 217.178ZM12.6941 217.97L13.4716 218.884C13.762 218.637 14.0695 218.338 14.3297 218.085C14.6095 217.814 14.8333 217.6 15.0125 217.453C15.0539 217.42 15.0868 217.395 15.1118 217.377C15.1377 217.358 15.1479 217.353 15.1443 217.355C15.1431 217.356 15.1084 217.375 15.046 217.395C14.9869 217.413 14.8562 217.446 14.6809 217.429C14.4868 217.41 14.2703 217.332 14.0857 217.169C13.9124 217.017 13.8328 216.848 13.7977 216.745C13.7392 216.574 13.7677 216.483 13.7561 216.598L14.95 216.718L16.144 216.839C16.1657 216.623 16.1805 216.296 16.0686 215.968C16.0068 215.788 15.8905 215.56 15.6715 215.368C15.4412 215.165 15.1699 215.065 14.9129 215.04C14.4732 214.997 14.1238 215.177 13.982 215.255C13.7994 215.356 13.6315 215.483 13.4948 215.594C13.2205 215.818 12.9189 216.111 12.6594 216.362C12.3804 216.632 12.1348 216.871 11.9166 217.056L12.6941 217.97Z" fill="black" mask="url(#path-40-inside-1_2327_106)"/>
<mask id="path-42-inside-2_2327_106" fill="white">
<path d="M9.60678 205.52L19.2668 211.454C19.3646 211.514 19.4004 211.632 19.3471 211.718C19.2938 211.805 19.1724 211.827 19.0746 211.767L9.41668 205.834C9.31893 205.774 9.28315 205.656 9.33642 205.569C9.38968 205.483 9.51115 205.461 9.6089 205.521L9.60678 205.52Z"/>
</mask>
<path d="M9.60678 205.52L19.2668 211.454C19.3646 211.514 19.4004 211.632 19.3471 211.718C19.2938 211.805 19.1724 211.827 19.0746 211.767L9.41668 205.834C9.31893 205.774 9.28315 205.656 9.33642 205.569C9.38968 205.483 9.51115 205.461 9.6089 205.521L9.60678 205.52Z" fill="black"/>
<path d="M9.60678 205.52L8.97869 206.542L18.6387 212.476L19.2668 211.454L19.8949 210.431L10.2349 204.497L9.60678 205.52ZM19.2668 211.454L18.6387 212.476C18.2903 212.262 17.9624 211.68 18.3246 211.09L19.3471 211.718L20.3696 212.346C20.8383 211.583 20.4388 210.765 19.8949 210.431L19.2668 211.454ZM19.3471 211.718L18.3246 211.09C18.6868 210.501 19.3543 210.53 19.7027 210.744L19.0746 211.767L18.4465 212.789C18.9904 213.123 19.9008 213.11 20.3696 212.346L19.3471 211.718ZM19.0746 211.767L19.7027 210.744L10.0448 204.812L9.41668 205.834L8.7886 206.857L18.4465 212.789L19.0746 211.767ZM9.41668 205.834L10.0448 204.812C10.3932 205.026 10.7211 205.608 10.3589 206.197L9.33642 205.569L8.31392 204.941C7.84517 205.704 8.2447 206.522 8.7886 206.857L9.41668 205.834ZM9.33642 205.569L10.3589 206.197C9.9967 206.787 9.32921 206.758 8.98082 206.544L9.6089 205.521L10.237 204.499C9.69309 204.165 8.78267 204.178 8.31392 204.941L9.33642 205.569ZM9.6089 205.521L10.237 204.499L10.2349 204.497L9.60678 205.52L8.97869 206.542L8.98082 206.544L9.6089 205.521Z" fill="black" mask="url(#path-42-inside-2_2327_106)"/>
<g filter="url(#filter2_d_2327_106)">
<path d="M8.36743 215.269L4.74441 213.044C2.87016 211.892 2.27752 209.686 3.21267 208.164L13.7544 191.002C14.6895 189.48 16.9249 189.012 18.7991 190.163L22.4222 192.388C24.2964 193.54 24.8896 195.745 23.9544 197.268L13.4127 214.429C12.4776 215.951 10.2417 216.42 8.36743 215.269Z" fill="#D6569B" stroke="black" stroke-width="1.2"/>
<path d="M8.23889 199.877L86.8155 71.9566L97.0621 78.2507L18.4855 206.171L8.23889 199.877Z" fill="#FF0000" stroke="black" stroke-width="1.2"/>
<path d="M8.24111 199.878L86.8177 71.958L88.541 73.0166L9.96442 200.937L8.24111 199.878Z" fill="#D80B0B" stroke="black" stroke-width="1.2"/>
<path d="M21.823 197.812L95.7574 77.4491L97.0622 78.2506L23.1277 198.613L21.823 197.812Z" fill="#DD3232" stroke="black" stroke-width="1.2"/>
<path d="M6.50406 201.392L19.0249 181.008L30.444 188.023L17.9232 208.406L6.50406 201.392Z" fill="#99CCFF" stroke="black" stroke-width="1.2"/>
<path d="M85.9011 75.8781C85.772 75.7368 85.6848 75.4633 85.7312 74.9829C85.7762 74.5177 85.9364 73.9733 86.1477 73.4336C86.3566 72.8998 86.603 72.4002 86.7989 72.032C86.8965 71.8486 86.9807 71.6992 87.0399 71.5967C87.0555 71.5698 87.0701 71.5465 87.082 71.5263L89.7501 69.2352L98.3854 61.8157L100.878 63.3471L98.3642 73.5971L97.3342 77.7929C97.3188 77.8137 97.3009 77.8381 97.2805 77.8653C97.202 77.9704 97.0877 78.1206 96.9464 78.2973C96.6623 78.6524 96.2753 79.1082 95.8539 79.5253C95.4241 79.9509 94.9951 80.2994 94.629 80.4783C94.3471 80.6161 94.2089 80.6086 94.1359 80.5777L94.0818 80.5445C93.9011 80.3854 93.7596 80.1012 93.6828 79.6735C93.6073 79.2535 93.6072 78.7648 93.6466 78.2864C93.6857 77.8124 93.7615 77.3733 93.8235 77.0599C93.8545 76.9035 93.8819 76.7799 93.9 76.6965C93.9077 76.6611 93.9174 76.6164 93.923 76.5846C93.9245 76.5759 93.9279 76.5582 93.9302 76.5374C93.9313 76.5273 93.9327 76.5069 93.9332 76.482C93.9335 76.471 93.936 76.3969 93.9116 76.3082C93.9009 76.2694 93.8628 76.1417 93.7427 76.0291C93.5791 75.876 93.3562 75.8348 93.1638 75.8913C93.0214 75.9331 92.9349 76.0156 92.9086 76.0417L92.8386 76.1259C92.8253 76.1388 92.8053 76.1572 92.778 76.1815C92.7022 76.2492 92.5899 76.3433 92.4491 76.454C92.1681 76.6749 91.7907 76.9506 91.3926 77.2055C90.9901 77.4633 90.5883 77.6863 90.255 77.8167C90.0879 77.8821 89.9607 77.9147 89.8734 77.925C89.8498 77.9277 89.8328 77.9275 89.8214 77.9274C89.7887 77.8962 89.7266 77.8152 89.6667 77.6307C89.5926 77.402 89.5483 77.0865 89.5452 76.7091C89.539 75.9536 89.7003 75.0643 89.9859 74.361L88.9613 73.7602L88.9607 73.7611C88.9598 73.7622 88.958 73.7645 88.9558 73.7672C88.9514 73.7727 88.9441 73.7809 88.9348 73.7921C88.916 73.815 88.888 73.8496 88.851 73.8931C88.777 73.9802 88.669 74.1042 88.5358 74.2496C88.2674 74.5422 87.9036 74.9124 87.5106 75.2393C87.1075 75.5745 86.7181 75.8259 86.3985 75.9303C86.1003 76.0277 85.9847 75.9694 85.9011 75.8781ZM93.8784 76.7131C93.8763 76.7179 93.8728 76.7275 93.8669 76.7392L93.8253 76.8088C93.8424 76.7826 93.8621 76.7505 93.8784 76.7131ZM89.8424 77.9437L89.8407 77.9427C89.8417 77.9433 89.8435 77.9433 89.8445 77.9439L89.8424 77.9437Z" fill="#EDDCAE" stroke="black" stroke-width="1.2"/>
<path d="M99.3414 60.9947L102.02 58.6932L101.179 62.1233L99.3414 60.9947Z" fill="#312A20" stroke="black" stroke-width="1.2"/>
<path d="M6.50389 201.392L19.0247 181.008L22.7983 183.326L10.2775 203.71L6.50389 201.392Z" fill="#7CB7E8" stroke="black" stroke-width="1.2"/>
<mask id="path-52-inside-3_2327_106" fill="white">
<path d="M13.5143 213.513C13.5143 213.513 11.7953 216.731 9.80747 215.969C7.81968 215.208 6.96223 214.393 6.96223 214.393C6.96223 214.393 6.23636 213.259 7.86724 213.973C9.49695 214.688 10.243 215.632 11.2583 214.765C12.2757 213.9 13.6477 212.19 13.5143 213.513Z"/>
</mask>
<path d="M13.5143 213.513C13.5143 213.513 11.7953 216.731 9.80747 215.969C7.81968 215.208 6.96223 214.393 6.96223 214.393C6.96223 214.393 6.23636 213.259 7.86724 213.973C9.49695 214.688 10.243 215.632 11.2583 214.765C12.2757 213.9 13.6477 212.19 13.5143 213.513Z" fill="#EA83BE"/>
<path d="M13.5143 213.513L14.5727 214.078L14.6844 213.869L14.7082 213.634L13.5143 213.513ZM6.96223 214.393L5.95157 215.04L6.03005 215.162L6.13556 215.263L6.96223 214.393ZM7.86724 213.973L8.34962 212.874L8.34826 212.873L7.86724 213.973ZM11.2583 214.765L10.4808 213.851L10.4792 213.853L11.2583 214.765ZM13.5143 213.513C12.4558 212.948 12.456 212.947 12.4561 212.947C12.4562 212.947 12.4563 212.947 12.4564 212.947C12.4565 212.946 12.4567 212.946 12.4568 212.946C12.457 212.945 12.4571 212.945 12.4572 212.945C12.4572 212.945 12.4569 212.946 12.4561 212.947C12.4547 212.95 12.4516 212.955 12.4471 212.963C12.438 212.98 12.4229 213.006 12.4022 213.041C12.3606 213.112 12.2971 213.216 12.2146 213.341C12.0468 213.593 11.8135 213.91 11.539 214.197C10.9 214.866 10.4829 214.943 10.2367 214.849L9.80747 215.969L9.37821 217.09C11.1198 217.757 12.5561 216.606 13.2736 215.856C13.6773 215.434 13.9979 214.994 14.2146 214.667C14.3243 214.502 14.4106 214.361 14.4708 214.258C14.501 214.207 14.5248 214.165 14.5418 214.135C14.5504 214.119 14.5572 214.107 14.5624 214.098C14.565 214.093 14.5671 214.089 14.5688 214.086C14.5697 214.084 14.5704 214.083 14.5711 214.081C14.5714 214.081 14.5717 214.08 14.572 214.08C14.5721 214.08 14.5723 214.079 14.5723 214.079C14.5725 214.079 14.5727 214.078 13.5143 213.513ZM9.80747 215.969L10.2367 214.849C9.32315 214.499 8.68593 214.143 8.29045 213.888C8.09251 213.76 7.95459 213.657 7.87246 213.592C7.83138 213.559 7.80423 213.536 7.79048 213.524C7.78361 213.518 7.78008 213.515 7.77984 213.515C7.77972 213.514 7.78042 213.515 7.78193 213.517C7.78269 213.517 7.78365 213.518 7.78481 213.519C7.78539 213.52 7.78602 213.52 7.78671 213.521C7.78705 213.521 7.7874 213.522 7.78777 213.522C7.78795 213.522 7.78823 213.522 7.78833 213.523C7.78861 213.523 7.7889 213.523 6.96223 214.393C6.13556 215.263 6.13586 215.263 6.13616 215.263C6.13626 215.263 6.13657 215.264 6.13678 215.264C6.13719 215.264 6.13763 215.265 6.13807 215.265C6.13896 215.266 6.13991 215.267 6.14091 215.268C6.14291 215.27 6.14513 215.272 6.14757 215.274C6.15245 215.279 6.15821 215.284 6.16485 215.29C6.17814 215.302 6.19498 215.317 6.21543 215.335C6.25634 215.37 6.31171 215.417 6.38208 215.473C6.52284 215.584 6.72351 215.733 6.98841 215.904C7.5186 216.246 8.304 216.678 9.37821 217.09L9.80747 215.969ZM6.96223 214.393C7.97289 213.746 7.97312 213.746 7.97335 213.747C7.97342 213.747 7.97365 213.747 7.97379 213.747C7.97408 213.748 7.97436 213.748 7.97463 213.749C7.97518 213.75 7.97569 213.75 7.97616 213.751C7.9771 213.753 7.97791 213.754 7.97859 213.755C7.97994 213.757 7.9808 213.759 7.98125 213.759C7.98209 213.761 7.98151 213.76 7.98003 213.757C7.97632 213.751 7.97225 213.743 7.96968 213.737C7.96587 213.728 7.97254 213.741 7.98073 213.773C7.98647 213.795 8.01286 213.9 7.99526 214.053C7.9753 214.226 7.89126 214.494 7.64225 214.706C7.40815 214.905 7.17001 214.933 7.08209 214.936C6.99635 214.94 6.97201 214.924 7.04332 214.943C7.10698 214.961 7.21724 214.998 7.38621 215.072L7.86724 213.973L8.34826 212.873C7.91515 212.684 7.44266 212.521 6.99352 212.538C6.74431 212.547 6.39444 212.616 6.08614 212.878C5.76293 213.154 5.6422 213.507 5.61105 213.778C5.55982 214.222 5.72725 214.601 5.77891 214.717C5.81891 214.806 5.85881 214.881 5.88843 214.934C5.9036 214.961 5.91703 214.984 5.92771 215.001C5.93307 215.01 5.93781 215.018 5.94181 215.024C5.94381 215.028 5.94564 215.031 5.94727 215.033C5.94808 215.034 5.94885 215.036 5.94957 215.037C5.94993 215.037 5.95027 215.038 5.95061 215.038C5.95077 215.039 5.95102 215.039 5.9511 215.039C5.95134 215.04 5.95157 215.04 6.96223 214.393ZM7.86724 213.973L7.38485 215.071C7.73639 215.226 8.04629 215.395 8.35766 215.568C8.64583 215.729 8.99351 215.928 9.32877 216.069C9.67738 216.215 10.1266 216.35 10.6407 216.302C11.177 216.252 11.6393 216.018 12.0374 215.678L11.2583 214.765L10.4792 213.853C10.3697 213.946 10.358 213.918 10.4179 213.913C10.4556 213.909 10.4261 213.926 10.2576 213.856C10.0757 213.779 9.86785 213.662 9.52605 213.472C9.20745 213.294 8.81294 213.077 8.34962 212.874L7.86724 213.973ZM11.2583 214.765L12.0358 215.679C12.3262 215.432 12.6337 215.132 12.8939 214.88C13.1737 214.609 13.3975 214.394 13.5767 214.248C13.6182 214.214 13.651 214.189 13.676 214.172C13.7019 214.153 13.7121 214.148 13.7085 214.15C13.7073 214.15 13.6726 214.17 13.6102 214.189C13.5511 214.208 13.4204 214.24 13.2451 214.223C13.0511 214.205 12.8345 214.127 12.6499 213.964C12.4766 213.812 12.397 213.642 12.3619 213.54C12.3035 213.369 12.3319 213.277 12.3203 213.393L13.5143 213.513L14.7082 213.634C14.7299 213.418 14.7447 213.091 14.6328 212.763C14.571 212.583 14.4547 212.355 14.2357 212.163C14.0054 211.96 13.7341 211.86 13.4772 211.835C13.0374 211.792 12.688 211.971 12.5462 212.05C12.3636 212.151 12.1957 212.277 12.059 212.389C11.7847 212.613 11.4831 212.905 11.2237 213.157C10.9446 213.427 10.6991 213.666 10.4808 213.851L11.2583 214.765Z" fill="black" mask="url(#path-52-inside-3_2327_106)"/>
<mask id="path-54-inside-4_2327_106" fill="white">
<path d="M8.17098 202.315L17.831 208.248C17.9288 208.308 17.9646 208.426 17.9113 208.513C17.858 208.6 17.7366 208.621 17.6388 208.561L7.98089 202.629C7.88314 202.569 7.84736 202.451 7.90063 202.364C7.95389 202.277 8.07536 202.256 8.17311 202.316L8.17098 202.315Z"/>
</mask>
<path d="M8.17098 202.315L17.831 208.248C17.9288 208.308 17.9646 208.426 17.9113 208.513C17.858 208.6 17.7366 208.621 17.6388 208.561L7.98089 202.629C7.88314 202.569 7.84736 202.451 7.90063 202.364C7.95389 202.277 8.07536 202.256 8.17311 202.316L8.17098 202.315Z" fill="white"/>
<path d="M8.17098 202.315L7.5429 203.337L17.2029 209.271L17.831 208.248L18.4591 207.226L8.79907 201.292L8.17098 202.315ZM17.831 208.248L17.2029 209.271C16.8545 209.057 16.5266 208.475 16.8888 207.885L17.9113 208.513L18.9338 209.141C19.4025 208.378 19.003 207.56 18.4591 207.226L17.831 208.248ZM17.9113 208.513L16.8888 207.885C17.251 207.295 17.9185 207.325 18.2669 207.539L17.6388 208.561L17.0107 209.584C17.5546 209.918 18.4651 209.904 18.9338 209.141L17.9113 208.513ZM17.6388 208.561L18.2669 207.539L8.60897 201.606L7.98089 202.629L7.3528 203.651L17.0107 209.584L17.6388 208.561ZM7.98089 202.629L8.60897 201.606C8.95738 201.82 9.28535 202.402 8.92313 202.992L7.90063 202.364L6.87813 201.736C6.40938 202.499 6.8089 203.317 7.3528 203.651L7.98089 202.629ZM7.90063 202.364L8.92313 202.992C8.56091 203.582 7.89342 203.552 7.54502 203.338L8.17311 202.316L8.80119 201.293C8.2573 200.959 7.34688 200.973 6.87813 201.736L7.90063 202.364ZM8.17311 202.316L8.80119 201.293L8.79907 201.292L8.17098 202.315L7.5429 203.337L7.54502 203.338L8.17311 202.316Z" fill="black" mask="url(#path-54-inside-4_2327_106)"/>
</g>
<defs>
<filter id="filter0_d_2327_106" x="28" y="0" width="250" height="299" filterUnits="userSpaceOnUse" color-interpolation-filters="sRGB">
<feFlood flood-opacity="0" result="BackgroundImageFix"/>
<feColorMatrix in="SourceAlpha" type="matrix" values="0 0 0 0 0 0 0 0 0 0 0 0 0 0 0 0 0 0 127 0" result="hardAlpha"/>
<feOffset dx="8" dy="9"/>
<feComposite in2="hardAlpha" operator="out"/>
<feColorMatrix type="matrix" values="0 0 0 0 0 0 0 0 0 0 0 0 0 0 0 0 0 0 1 0"/>
<feBlend mode="normal" in2="BackgroundImageFix" result="effect1_dropShadow_2327_106"/>
<feBlend mode="normal" in="SourceGraphic" in2="effect1_dropShadow_2327_106" result="shape"/>
</filter>
<filter id="filter1_d_2327_106" x="186" y="202" width="130.231" height="148.139" filterUnits="userSpaceOnUse" color-interpolation-filters="sRGB">
<feFlood flood-opacity="0" result="BackgroundImageFix"/>
<feColorMatrix in="SourceAlpha" type="matrix" values="0 0 0 0 0 0 0 0 0 0 0 0 0 0 0 0 0 0 127 0" result="hardAlpha"/>
<feOffset dx="9" dy="7"/>
<feComposite in2="hardAlpha" operator="out"/>
<feColorMatrix type="matrix" values="0 0 0 0 0 0 0 0 0 0 0 0 0 0 0 0 0 0 1 0"/>
<feBlend mode="normal" in2="BackgroundImageFix" result="effect1_dropShadow_2327_106"/>
<feBlend mode="normal" in="SourceGraphic" in2="effect1_dropShadow_2327_106" result="shape"/>
</filter>
<filter id="filter2_d_2327_106" x="2.17371" y="57.0179" width="100.876" height="166.491" filterUnits="userSpaceOnUse" color-interpolation-filters="sRGB">
<feFlood flood-opacity="0" result="BackgroundImageFix"/>
<feColorMatrix in="SourceAlpha" type="matrix" values="0 0 0 0 0 0 0 0 0 0 0 0 0 0 0 0 0 0 127 0" result="hardAlpha"/>
<feOffset dy="7"/>
<feComposite in2="hardAlpha" operator="out"/>
<feColorMatrix type="matrix" values="0 0 0 0 0 0 0 0 0 0 0 0 0 0 0 0 0 0 0.25 0"/>
<feBlend mode="normal" in2="BackgroundImageFix" result="effect1_dropShadow_2327_106"/>
<feBlend mode="normal" in="SourceGraphic" in2="effect1_dropShadow_2327_106" result="shape"/>
</filter>
</defs>
</svg>
