<svg width="393" height="329" viewBox="0 0 393 329" fill="none" xmlns="http://www.w3.org/2000/svg">
<path fill-rule="evenodd" clip-rule="evenodd" d="M127.899 2.4549C125.197 4.10015 123.439 6.47481 122.545 9.6935C120.827 15.8714 120.755 57.5229 122.46 58.5748C123.286 59.0838 123.722 50.787 123.722 34.6167V9.87995L127.41 6.19766L131.097 2.51537L204.683 2.55568C260.538 2.58592 278.751 2.96511 280.271 4.13039C284.884 7.66654 285.208 10.5325 285.208 47.7837C285.208 71.3551 285.657 84.4 286.469 84.4C287.282 84.4 287.731 71.3614 287.731 47.8039C287.731 17.5569 287.399 10.5678 285.817 7.51285C281.844 -0.159108 283.521 -0.00415593 204.213 0.000883126C134.838 0.00466242 131.76 0.104184 127.899 2.4549ZM193.11 17.6325C193.11 18.3796 197.737 18.8923 204.465 18.8923C211.193 18.8923 215.819 18.3796 215.819 17.6325C215.819 16.8855 211.193 16.3728 204.465 16.3728C197.737 16.3728 193.11 16.8855 193.11 17.6325ZM244.086 38.4249C242.891 40.2453 241.578 45.1974 241.168 49.4315L240.421 57.1286L236.867 51.5529C234.911 48.4866 231.847 44.8951 230.057 43.5736C226.853 41.2077 226.773 41.2077 224.999 43.5736C222.498 46.9082 223.654 54.1518 228.124 63.1553C230.936 68.8217 231.359 70.5426 229.941 70.5426C227.151 70.5426 228.645 85.5602 231.998 91.2367L234.597 95.6346L224.893 96.0011L215.189 96.3677V106.446V116.524L258.399 116.855L301.609 117.187V106.462V95.7379H283.946C274.232 95.7379 266.284 95.5741 266.284 95.3738C266.284 95.1747 267.369 92.8858 268.695 90.2881C272.293 83.2423 273.437 73.0155 270.842 71.1208C268.965 69.7502 268.96 69.2261 270.784 64.8661C272.527 60.7001 272.546 59.8787 270.938 58.2738C269.595 56.9334 268.465 56.7784 266.739 57.7018C264.549 58.8721 264.377 58.3997 264.384 51.2418C264.393 41.5529 261.821 40.2491 256.918 47.4549L253.668 52.2307L253.541 47.2143C253.347 39.4327 251.983 35.9444 248.964 35.5073C247.163 35.2465 245.532 36.2216 244.086 38.4249ZM85.7502 39.172C84.0584 40.8613 83.3077 42.8782 83.6686 44.764C84.1139 47.0934 82.88 48.8558 77.7995 53.1503C66.7075 62.5217 67.5793 62.1148 63.3176 59.914C58.203 57.2722 54.5469 57.441 49.4348 60.5527L45.1668 63.1516L38.1838 58.823C32.6075 55.3662 31.1705 53.7991 31.0494 51.044C30.7744 44.7741 22.7506 41.7822 18.5734 46.3917C13.6784 51.7923 18.2201 58.8117 25.815 57.5809C29.292 57.0165 31.4784 57.7106 36.815 61.0704L43.475 65.2642L43.1419 71.5139C42.8707 76.6272 43.3753 78.4199 45.9162 81.3703L49.0223 84.977L43.4649 96.0263C38.7339 105.433 37.4445 107.076 34.7951 107.076C32.8851 107.076 30.9018 108.267 29.6604 110.158C25.1842 116.98 34.4671 124.455 40.567 118.943C43.2858 116.486 43.6541 113.159 41.5763 109.837C40.4383 108.017 41.2344 105.583 45.7938 96.9422C51.2099 86.6764 51.5594 86.3047 55.4388 86.7041C57.8851 86.956 61.1981 86.0969 63.8802 84.5171L68.2946 81.9157L74.5383 85.9923C79.3475 89.1329 80.7871 90.8197 80.8047 93.338C80.8577 100.96 91.2193 103.443 94.4818 96.6159C95.9427 93.5585 95.8834 92.6502 94.0491 89.8535C92.1945 87.0279 91.2899 86.7066 86.8554 87.3012C82.5457 87.8782 80.9372 87.3693 76.1809 83.9225C70.5996 79.8787 70.5794 79.8359 70.2766 71.4509L69.9725 63.0369L77.8551 56.7293C84.4886 51.4219 86.3268 50.5401 89.4593 51.1649C92.2336 51.7192 93.856 51.2342 95.8355 49.2576C99.1712 45.9268 99.2179 42.2949 95.9667 39.0485C92.7168 35.8034 89.0796 35.8474 85.7502 39.172ZM245.771 39.754C242.857 45.4317 241.916 55.6371 243.572 63.6038C244.86 69.7955 245.391 70.6408 247.78 70.302C250.379 69.9316 250.531 69.1984 250.867 55.4027C251.132 44.4793 250.781 40.2932 249.446 38.4703C247.743 36.1448 247.598 36.1951 245.771 39.754ZM226.771 44.9102C224.802 46.8754 226.191 54.0548 230.024 61.7242C233.725 69.1304 234.523 69.9518 238.374 70.3196C242.461 70.7101 242.597 70.5842 241.752 67.2218C239.357 57.6955 229.167 42.5179 226.771 44.9102ZM259.665 47.5821C256.273 51.4471 254.037 57.1639 253.273 63.9288C252.57 70.142 252.694 70.5426 255.32 70.5426C257.672 70.5426 258.464 69.2942 260.323 62.6691C263.542 51.1914 264.169 47.0077 262.794 46.1599C262.123 45.7454 260.715 46.3854 259.665 47.5821ZM142.015 55.205C132.134 59.8724 128.563 67.3529 129.696 81.0049L130.407 89.5764L125.554 94.5398C122.884 97.2697 120.103 100.956 119.372 102.731C118.61 104.583 115.371 107.402 111.768 109.351C108.315 111.218 104.731 114.162 103.803 115.894C101.249 120.656 102.909 149.973 106.815 169.119C107.476 172.358 107.243 172.583 103.226 172.583C97.3974 172.583 93.4435 176.865 93.4435 183.178C93.4435 190.191 98.8659 197.214 111.611 206.71L116.531 210.376H111.295C104.808 210.376 100.406 214.09 101.542 218.605C102.238 221.379 101.891 221.601 96.2884 221.96L90.2895 222.344L89.9034 229.85C89.6915 233.978 89.8454 238.661 90.2453 240.254L90.9733 243.15L162.543 242.825L234.113 242.5L234.479 232.107L234.846 221.714H225.332C220.1 221.714 215.837 221.288 215.86 220.769C215.881 220.25 216.733 218.724 217.752 217.379C221.186 212.845 218.895 200.272 214.361 198.763C211.964 197.965 214.414 195.259 217.534 195.259C219.089 195.259 221.042 194.579 221.875 193.747C223.682 191.943 223.892 185.64 222.18 184.584C221.516 184.173 223.564 179.573 226.734 174.36C229.904 169.147 232.209 164.594 231.857 164.243C231.273 163.659 209.063 168.844 204.343 170.667C201.807 171.646 188.827 156.093 187.546 150.538C187.065 148.459 184.312 139.172 181.428 129.9C175.623 111.246 172.72 106.988 164.027 104.387C158.334 102.684 158.198 102.442 161.384 99.6645C166.372 95.3146 168.444 89.1972 168.684 78.1012C168.813 72.2118 169.342 66.3236 169.86 65.0173C173.27 56.4219 153.893 49.594 142.015 55.205ZM265.433 61.0742C263.962 62.1034 262.162 64.6545 261.433 66.7431C260.189 70.3095 260.301 70.5426 263.26 70.5426C265.664 70.5426 266.846 69.5071 268.24 66.1737C271.248 58.9868 270.461 57.5582 265.433 61.0742ZM149.772 68.886C149.323 69.3357 148.954 71.2392 148.954 73.1175C148.954 77.3466 145.752 80.4468 143.602 78.3002C142.799 77.4977 141.12 76.8414 139.871 76.8414C136.337 76.8414 137.147 80.9772 141.488 85.1092C144.684 88.149 145.261 89.526 144.733 92.8316C144.38 95.0437 142.867 98.5056 141.371 100.525C139.105 103.587 138.798 105.168 139.531 110.045C140.554 116.857 142.969 117.663 148.393 113.004L151.758 110.116L149.099 105.761C145.476 99.827 145.712 99.1027 150.951 100.084C160.198 101.816 166.54 92.824 166.589 77.9122L166.617 69.5348L161.886 69.7237C159.284 69.827 155.677 69.4982 153.872 68.9906C152.068 68.4841 150.222 68.4363 149.772 68.886ZM229.924 75.8966C230.323 78.697 230.566 78.731 250.198 78.7701C270.055 78.8091 270.069 78.8066 270.069 75.9356C270.069 73.0634 270.06 73.0621 249.794 73.0621H229.522L229.924 75.8966ZM231.487 82.0442C231.192 82.5217 231.243 83.6731 231.6 84.6016C232.102 85.9079 236.314 86.2758 250.212 86.2266C267.15 86.1662 268.176 86.0226 268.176 83.7096C268.176 81.3955 267.158 81.2544 250.101 81.2166C240.16 81.1951 231.784 81.5668 231.487 82.0442ZM233.482 89.4479C233.482 89.827 234.366 91.398 235.446 92.9374C237.254 95.5161 238.416 95.7379 250.13 95.7379C260.767 95.7379 263.126 95.3763 264.528 93.5333C267.963 89.0132 266.74 88.6089 249.883 88.6832C240.862 88.7235 233.482 89.0674 233.482 89.4479ZM153.924 108.684C152.455 112.862 150.964 114.416 146.116 116.82C142.82 118.454 140.123 120.565 140.123 121.51C140.123 122.455 138.376 124.696 136.241 126.49C128.054 133.368 116.152 128.865 116.152 118.887C116.152 116.29 117.086 113.173 118.248 111.892C119.4 110.619 120.024 109.261 119.634 108.873C118.49 107.73 106.448 114.327 105.586 116.568C103.666 121.566 105.457 151.267 108.622 166.914L109.896 173.213L120.278 177.242C125.989 179.458 134.351 181.874 138.861 182.611C143.372 183.349 148.95 184.263 151.259 184.642C154.997 185.257 155.412 185.039 155.044 182.655C154.736 180.655 150.597 177.876 138.634 171.637L122.638 163.296L122.233 153.328C122.011 147.845 122.183 143.144 122.614 142.879C123.625 142.262 124.952 150.27 124.97 157.09L124.984 162.382L141.069 170.475C149.916 174.924 159.142 178.973 161.57 179.469C166.518 180.481 175.448 185.801 175.448 187.736C175.448 188.429 173.31 187.583 170.697 185.856C168.083 184.129 164.052 182.338 161.737 181.875C158.113 181.152 157.591 181.354 157.973 183.333C158.217 184.599 160.034 186.062 162.021 186.592C166.492 187.786 170.415 191.215 170.36 193.88C170.327 195.419 169.747 195.205 167.88 192.968L165.441 190.048L156.596 192.892C151.731 194.457 147.971 195.958 148.243 196.228C149.575 197.559 168.348 201.573 169.101 200.687C170.549 198.984 185.541 175.124 185.541 174.521C185.541 174.212 182.845 171.908 179.548 169.404C175.046 165.981 173.195 163.538 172.102 159.583L170.649 154.317L170.525 158.929C170.457 161.465 171.529 167.134 172.908 171.526C174.287 175.918 175.423 180.315 175.432 181.297C175.463 184.73 173.718 181.303 170.827 172.256C168.614 165.331 167.909 160.179 167.895 150.852C167.886 144.096 168.399 138.57 169.035 138.57C170.202 138.57 172.414 147.226 173.793 157.189C174.44 161.864 175.48 163.328 181.617 168.203C189.035 174.095 190.848 174.639 196.237 172.593L199.528 171.345L193.273 163.841C188.95 158.652 186.385 154.08 184.963 149.027C178.538 126.185 174.054 113.692 171.394 111.213C169.807 109.734 165.635 107.398 162.124 106.023L155.738 103.521L153.924 108.684ZM285.208 138.57C285.208 146.747 285.661 151.036 286.469 150.538C287.163 150.109 287.731 144.724 287.731 138.57C287.731 132.416 287.163 127.03 286.469 126.602C285.661 126.103 285.208 130.393 285.208 138.57ZM39.5035 138.885C36.9689 142.048 36.6913 145.793 38.5396 151.878C41.0489 160.136 40.9493 162.509 37.7145 171.766L34.973 179.609L38.2999 186.63C42.6322 195.773 44.2686 203.33 43.4397 210.365C42.9413 214.595 43.1142 215.563 44.1172 214.156C46.6164 210.648 45.6487 198.889 42.1995 190.85C37.5025 179.899 37.389 178.585 40.4459 170.478C43.1974 163.181 43.2012 163.073 40.9594 153.203L38.7049 143.273L41.6129 140.921C45.3825 137.873 46.2581 137.95 49.9748 141.663C54.1469 145.827 53.9539 151.012 49.2872 160.182C44.8363 168.928 44.6483 171.688 47.9979 179.06C51.0295 185.732 51.2036 194.003 48.5769 206.576C47.3507 212.447 46.9192 218.265 47.4352 222.006C48.7119 231.273 50.7772 230.808 49.8184 221.469C49.2418 215.851 49.6051 211.088 51.0346 205.517C53.7571 194.904 53.6032 186.626 50.5488 179.512C47.2295 171.778 47.362 168.763 51.3727 160.889C55.8009 152.192 55.9927 144.905 51.9063 140.561C48.5732 137.019 41.739 136.094 39.5035 138.885ZM1.38273 153.565C-1.61611 155.577 0.492034 156.239 5.49809 154.859C14.429 152.397 22.7935 156.626 22.7935 163.603C22.7935 165.769 22.1866 166.028 18.5002 165.43C15.0434 164.87 13.9382 165.236 12.8268 167.308C9.89479 172.779 15.4497 176.896 20.9276 173.312C23.8885 171.374 24.0513 171.44 26.1153 175.412C27.2873 177.667 28.4732 178.842 28.7508 178.023C29.0283 177.204 28.3685 174.822 27.2861 172.731C26.2023 170.64 25.3167 166.948 25.3167 164.527C25.3167 161.715 24.2393 158.875 22.333 156.663C19.7631 153.679 18.2302 153.138 11.2939 152.759C6.86315 152.517 2.40337 152.879 1.38273 153.565ZM72.5374 154.812C65.8168 157.859 59.7939 165.303 58.2686 172.447C56.5238 180.612 58.1828 181.86 60.2191 173.915C62.4407 165.244 65.5481 161.078 72.5639 157.362C75.7217 155.69 78.3042 153.895 78.3042 153.375C78.3042 152.153 78.5199 152.098 72.5374 154.812ZM269.728 163.034C260.591 166.786 254.49 171.395 250.308 177.707C247.317 182.219 247.202 182.864 248.919 185.478C252.55 191.012 260.687 197.921 267.545 201.295C273.535 204.241 276.04 204.707 285.865 204.707C296.181 204.707 298.033 204.321 305.669 200.567C314.777 196.089 324.318 186.695 324.318 182.203C324.318 178.009 310.379 165.655 302.202 162.6C292.338 158.914 279.339 159.089 269.728 163.034ZM335.22 164.551C332.369 170.522 333.385 171.388 336.79 165.888C339.678 161.22 340.021 159.986 338.429 159.986C337.864 159.986 336.42 162.04 335.22 164.551ZM278.63 162.531C275.358 163.087 270.076 164.843 266.891 166.431C260.942 169.399 249.883 180.074 249.883 182.852C249.883 186.248 263.368 197.451 270.819 200.243C280.757 203.968 295.549 203.473 304.522 199.117C311.765 195.601 321.794 185.968 321.794 182.529C321.794 179.389 312.149 169.726 305.771 166.476C301.332 164.216 297.035 163.133 287.731 161.927C285.996 161.703 281.901 161.974 278.63 162.531ZM15.1797 167.572C14.3079 168.11 13.9584 169.497 14.4038 170.655C15.4269 173.318 20.7244 172.743 21.2644 169.911C21.7034 167.612 17.6436 166.05 15.1797 167.572ZM225.808 166.802C225.519 167.087 217.049 169.442 206.988 172.035C196.927 174.628 187.964 177.316 187.071 178.009C185.088 179.547 171.364 200.419 171.952 201.006C172.183 201.237 181.012 199.346 191.573 196.804C210.497 192.25 210.773 192.132 210.773 188.754C210.773 185.107 214.939 181.144 217.671 182.19C218.919 182.669 228.435 169.084 228.435 166.824C228.435 166.136 226.5 166.12 225.808 166.802ZM74.8096 169.498C70.8279 172.284 69.4237 175.447 66.7567 187.639C64.8933 196.154 63.2065 200.139 58.6963 206.673C52.247 216.014 50.6006 222.276 53.5843 226.123C55.4098 228.479 55.4893 228.275 54.8068 222.968C54.1267 217.692 54.5305 216.621 60.5319 207.748C65.8496 199.89 67.3244 196.456 68.8876 188.303C69.9309 182.856 71.7956 176.666 73.0307 174.546C76.8016 168.081 84.6122 169.105 84.6122 176.064C84.6122 181.179 79.7815 189.419 69.483 201.874C58.637 214.993 56.2147 219.796 57.2467 226.145L57.9595 230.533H47.9032C38.368 230.533 37.6539 230.335 34.105 226.71C30.8715 223.407 30.3631 221.942 30.3631 215.939C30.3631 207.42 28.5237 203.715 20.9212 196.917C16.5662 193.023 15.1343 190.888 15.4408 188.741C16.3795 182.153 27.3731 186.154 33.1021 195.168C36.4844 200.491 36.7355 201.709 36.4012 211.225C36.0933 220.007 36.4226 222.034 38.6405 225.003C42.6751 230.405 44.7391 230.114 41.0161 224.668C38.0614 220.346 37.7915 219.049 38.5081 212.617C38.9559 208.596 38.7074 203.168 37.9428 200.337C36.1526 193.698 28.5691 185.832 22.2977 184.113C11.029 181.021 9.49108 189.279 19.6142 198.523C27.0564 205.318 29.1633 209.551 28.2991 215.97C27.7465 220.082 28.2348 221.996 30.7895 225.733L33.9688 230.381L31.2197 230.772C29.0182 231.084 28.39 232.141 28.0682 236.073C27.8462 238.774 28.1906 241.325 28.8315 241.742C29.8408 242.398 27.4816 287.15 24.725 319.661L23.9504 328.794H47.3418C68.8018 328.794 70.7295 328.611 70.6765 326.589C70.6437 325.378 69.3052 305.961 67.7004 283.443C65.9354 258.681 65.2453 242.2 65.9531 241.742C66.5977 241.325 66.9434 238.774 66.7214 236.073C66.3694 231.771 65.8887 231.113 62.8495 230.764C59.6034 230.391 59.3801 229.977 59.3801 224.34C59.3801 217.707 61.9689 213.307 73.5265 200.298C80.2458 192.735 87.1355 180.197 87.1355 175.531C87.1355 172.048 83.0264 167.544 79.8471 167.544C78.6133 167.544 76.3462 168.424 74.8096 169.498ZM279.862 170.714C276.061 172.842 272.592 178.543 272.592 182.662C272.592 187.377 276.397 192.877 280.984 194.791C289.719 198.435 299.085 192.082 299.085 182.512C299.085 172.81 288.128 166.086 279.862 170.714ZM101.297 174.841C97.2371 175.471 94.2938 180.442 95.2917 184.982C96.3704 189.885 103.66 198.207 112.689 204.845C119.619 209.938 120.395 210.204 126.315 209.503C131.243 208.921 133.113 209.232 135.015 210.951C137.326 213.039 137.904 212.976 147.507 209.579C153.046 207.621 157.353 205.658 157.08 205.218C156.808 204.778 153.165 203.745 148.985 202.925C142.255 201.602 141.385 201.089 141.385 198.45C141.385 196.073 142.447 195.116 146.627 193.725L151.867 191.98L137.48 186.501C129.566 183.488 121.012 179.987 118.473 178.723C112.933 175.968 105.242 174.23 101.297 174.841ZM289.968 177.876C288.979 180.558 290.298 182.662 292.97 182.662C294.844 182.662 295.375 181.95 295.074 179.84C294.627 176.72 290.92 175.294 289.968 177.876ZM341.349 182.662C341.778 183.354 344.366 183.921 347.101 183.921C349.836 183.921 352.073 183.354 352.073 182.662C352.073 181.969 349.484 181.402 346.321 181.402C342.808 181.402 340.872 181.892 341.349 182.662ZM214.017 185.9C212.927 186.99 212.035 188.367 212.035 188.96C212.035 189.554 212.927 190.931 214.017 192.02C215.108 193.109 216.487 193.999 217.081 193.999C217.675 193.999 219.054 193.109 220.145 192.02C221.235 190.931 222.127 189.554 222.127 188.96C222.127 188.367 221.235 186.99 220.145 185.9C219.054 184.812 217.675 183.921 217.081 183.921C216.487 183.921 215.108 184.812 214.017 185.9ZM146.431 187.2C151.939 189.765 160.309 191.014 160.309 189.271C160.309 188.567 157.097 187.59 153.172 187.101C149.247 186.611 145.132 185.971 144.025 185.677C142.92 185.384 144.002 186.069 146.431 187.2ZM333.154 196.13C333.162 197.879 338.296 205.656 338.988 204.967C339.793 204.163 336.174 196.977 334.419 195.894C333.72 195.463 333.151 195.569 333.154 196.13ZM183.648 200.931C174.628 203.271 160.719 207.392 152.739 210.089C139.432 214.588 138.198 215.272 137.832 218.354L137.432 221.714H174.642H211.852L214.466 218.395C217.635 214.372 217.899 207.064 215.023 202.965C212.846 199.86 206.062 196.466 202.297 196.597C201.061 196.641 192.669 198.591 183.648 200.931ZM144.539 198.736C146.042 200.214 163.942 204.648 164.829 203.763C165.168 203.424 161.593 202.198 156.885 201.038C152.176 199.877 147.188 198.606 145.8 198.212C144.136 197.74 143.707 197.918 144.539 198.736ZM118.172 216.098C114.534 219.731 116.489 221.064 126.031 221.455C134.337 221.795 135.077 221.62 135.077 219.324C135.077 216.162 134.571 215.89 126.744 214.836C121.576 214.14 119.883 214.39 118.172 216.098ZM285.208 267.718V318.91L281.52 322.592L277.832 326.275H204.633H131.433L127.893 323.237L124.353 320.199L123.722 290.168C123.356 272.774 122.648 261.035 122.038 262.27C121.457 263.444 121.174 276.849 121.407 292.059C121.87 322.397 121.957 322.736 130.28 327.033C135.459 329.707 273.191 329.631 279.616 326.95C287.552 323.639 287.731 322.321 287.731 267.18C287.731 235.808 287.276 217.803 286.469 217.305C285.637 216.791 285.208 233.911 285.208 267.718ZM29.1015 236.167V239.351H47.4831C65.8231 239.351 65.8622 239.345 65.461 236.516C65.0661 233.747 64.641 233.674 47.0794 233.333L29.1015 232.983V236.167ZM31.6247 248.799C31.6247 255.111 31.877 255.738 34.4633 255.842C37.9063 255.982 57.8737 255.972 60.9571 255.83C62.7801 255.745 63.1649 254.52 63.1649 248.799V241.87H47.3948H31.6247V248.799ZM317.322 255.041C313.565 258.792 313.419 261.222 316.748 264.546C318.637 266.432 319.266 268.727 319.252 273.679C319.23 281.494 318.716 282.416 313.13 284.673C304.063 288.338 301.465 299.219 307.908 306.545C312.35 311.597 317.812 313.06 323.45 310.706C328.391 308.644 330.436 306.271 332.542 300.156C334.033 295.826 334.756 295.287 341.192 293.718C347.427 292.199 348.441 292.233 350.234 294.023C354.915 298.7 362.73 294.464 361.945 287.678C361.123 280.567 351.607 279.821 348.504 286.623C347.51 288.8 345.378 289.929 339.984 291.135C332.914 292.714 332.745 292.687 330.131 289.513C328.669 287.738 326.195 285.626 324.633 284.819C322.173 283.55 321.794 282.357 321.794 275.884C321.794 269.733 322.235 268.179 324.289 267.081C330.281 263.878 330.643 256.029 324.919 253.424C320.694 251.503 320.911 251.456 317.322 255.041ZM31.0532 259.41C30.7769 259.859 30.4123 264.457 30.2433 269.629L29.9367 279.033L47.5399 279.381L65.1431 279.729L64.7066 270.563C64.4656 265.521 64.0657 260.759 63.8172 259.981C63.3314 258.455 31.983 257.91 31.0532 259.41ZM35.4272 269.575C33.1374 270.987 34.9049 274.906 37.5984 274.387C38.8071 274.156 39.9728 273.051 40.1885 271.933C40.649 269.542 37.7814 268.121 35.4272 269.575ZM45.5201 269.575C43.2302 270.987 44.9978 274.906 47.6913 274.387C48.8999 274.156 50.0656 273.051 50.2814 271.933C50.7419 269.542 47.8742 268.121 45.5201 269.575ZM55.5789 270.235C53.7256 272.464 55.0124 274.624 58.1929 274.624C59.7548 274.624 60.6417 273.76 60.6417 272.24C60.6417 269.191 57.4852 267.941 55.5789 270.235ZM28.6498 295.725C27.1447 304.82 25.8415 304.229 47.3948 304.229C69.2295 304.229 68.1306 304.773 66.1612 294.938L65.3727 291.001H47.4024H29.432L28.6498 295.725ZM28.4581 307.398C28.1439 307.906 27.5106 312.36 27.0514 317.297L26.2162 326.275H47.2131H68.2113L68.0625 320.291C67.9805 316.999 67.549 312.606 67.1036 310.527L66.295 306.748L47.6623 306.611C37.4142 306.537 28.7722 306.891 28.4581 307.398ZM193.741 311.157C194.17 311.85 199.313 312.417 205.17 312.417C211.429 312.417 215.819 311.898 215.819 311.157C215.819 310.41 211.169 309.898 204.39 309.898C197.092 309.898 193.243 310.352 193.741 311.157ZM35.7249 314.598C34.8582 314.899 34.1479 316.272 34.1479 317.649C34.1479 319.52 34.8607 320.05 36.9739 319.749C38.5282 319.527 39.9753 318.425 40.1898 317.3C40.6086 315.103 38.2948 313.702 35.7249 314.598ZM45.5201 314.927C43.176 316.373 44.9359 319.976 47.9865 319.976C49.6594 319.976 50.5488 319.148 50.5488 317.591C50.5488 314.84 47.9184 313.445 45.5201 314.927ZM55.5789 315.587C53.7256 317.815 55.0124 319.976 58.1929 319.976C59.7548 319.976 60.6417 319.112 60.6417 317.591C60.6417 314.542 57.4852 313.293 55.5789 315.587Z" fill="black"/>
<rect x="244" y="146" width="149" height="68" fill="#FFEDD2"/>
<path d="M307.85 167.148V198.718C307.85 200.31 306.471 201.07 304.8 202.256C303.458 203.211 301.75 202.027 301.75 200.466V169.618C301.75 168.974 301.524 168.361 300.792 167.986C300.06 167.611 277.191 155.588 277.191 155.588C276.822 155.451 275.212 154.435 273.065 155.539C271.024 156.588 269.914 157.729 269.63 158.266L294.579 171.936C295.241 172.284 295.65 172.821 295.65 173.51V206.456C295.642 206.828 295.534 207.19 295.335 207.504C295.137 207.819 294.857 208.073 294.525 208.24C294.209 208.396 293.861 208.476 293.509 208.475C293.095 208.479 292.687 208.37 292.332 208.158C291.676 207.758 268.621 193.622 267.099 192.703C266.367 192.264 265.51 191.365 265.492 190.697L265.15 159.324C265.15 158.72 265.08 157.656 266.031 156.177C268.157 152.87 275.575 149.11 279.329 151.059L306.776 164.952C307.438 165.293 307.85 165.976 307.85 167.148Z" fill="black"/>
</svg>
