<svg width="561" height="561" viewBox="0 0 561 561" fill="none" xmlns="http://www.w3.org/2000/svg">
<g filter="url(#filter0_f_2309_172)">
<rect x="92.7" y="92.7" width="375" height="375" fill="#FFEDD2"/>
</g>
<path fill-rule="evenodd" clip-rule="evenodd" d="M220.599 117.155C217.897 118.8 216.139 121.175 215.245 124.393C213.527 130.571 213.455 172.223 215.16 173.275C215.986 173.784 216.422 165.487 216.422 149.317V124.58L220.11 120.898L223.797 117.215L297.383 117.256C353.238 117.286 371.451 117.665 372.971 118.83C377.584 122.366 377.908 125.232 377.908 162.484C377.908 186.055 378.357 199.1 379.169 199.1C379.982 199.1 380.431 186.061 380.431 162.504C380.431 132.257 380.099 125.268 378.517 122.213C374.544 114.541 376.221 114.696 296.913 114.701C227.538 114.705 224.46 114.804 220.599 117.155ZM285.81 132.332C285.81 133.08 290.437 133.592 297.165 133.592C303.893 133.592 308.519 133.08 308.519 132.332C308.519 131.585 303.893 131.073 297.165 131.073C290.437 131.073 285.81 131.585 285.81 132.332ZM336.786 153.125C335.591 154.945 334.278 159.897 333.868 164.131L333.121 171.829L329.567 166.253C327.611 163.187 324.547 159.595 322.757 158.274C319.553 155.908 319.473 155.908 317.699 158.274C315.198 161.608 316.354 168.852 320.824 177.855C323.636 183.522 324.059 185.243 322.641 185.243C319.851 185.243 321.345 200.26 324.698 205.937L327.297 210.335L317.593 210.701L307.889 211.068V221.146V231.224L351.099 231.555L394.309 231.887V221.162V210.438H376.646C366.932 210.438 358.984 210.274 358.984 210.074C358.984 209.875 360.069 207.586 361.395 204.988C364.993 197.942 366.137 187.715 363.542 185.821C361.665 184.45 361.66 183.926 363.484 179.566C365.227 175.4 365.246 174.579 363.638 172.974C362.295 171.633 361.165 171.478 359.439 172.402C357.249 173.572 357.077 173.1 357.084 165.942C357.092 156.253 354.521 154.949 349.617 162.155L346.368 166.931L346.241 161.914C346.047 154.133 344.683 150.644 341.664 150.207C339.863 149.946 338.231 150.922 336.786 153.125ZM178.45 153.872C176.758 155.561 176.008 157.578 176.369 159.464C176.814 161.793 175.58 163.556 170.499 167.85C159.407 177.222 160.279 176.815 156.018 174.614C150.903 171.972 147.247 172.141 142.135 175.253L137.867 177.852L130.884 173.523C125.307 170.066 123.87 168.499 123.749 165.744C123.474 159.474 115.451 156.482 111.273 161.092C106.378 166.492 110.92 173.512 118.515 172.281C121.992 171.716 124.178 172.411 129.515 175.77L136.175 179.964L135.842 186.214C135.571 191.327 136.075 193.12 138.616 196.07L141.722 199.677L136.165 210.726C131.434 220.133 130.144 221.776 127.495 221.776C125.585 221.776 123.602 222.967 122.36 224.858C117.884 231.68 127.167 239.155 133.267 233.643C135.986 231.186 136.354 227.859 134.276 224.537C133.138 222.717 133.934 220.283 138.494 211.642C143.91 201.376 144.259 201.005 148.139 201.404C150.585 201.656 153.898 200.797 156.58 199.217L160.995 196.616L167.238 200.692C172.047 203.833 173.487 205.52 173.505 208.038C173.558 215.66 183.919 218.143 187.182 211.316C188.643 208.258 188.583 207.35 186.749 204.553C184.894 201.728 183.99 201.407 179.555 202.001C175.246 202.578 173.637 202.069 168.881 198.622C163.3 194.579 163.279 194.536 162.977 186.151L162.672 177.737L170.555 171.429C177.189 166.122 179.027 165.24 182.159 165.865C184.934 166.419 186.556 165.934 188.535 163.958C191.871 160.627 191.918 156.995 188.667 153.748C185.417 150.503 181.78 150.547 178.45 153.872ZM338.471 154.454C335.557 160.132 334.616 170.337 336.272 178.304C337.56 184.495 338.091 185.341 340.48 185.002C343.079 184.632 343.231 183.898 343.567 170.103C343.832 159.179 343.481 154.993 342.146 153.17C340.443 150.845 340.298 150.895 338.471 154.454ZM319.471 159.61C317.502 161.575 318.891 168.755 322.724 176.424C326.425 183.83 327.223 184.652 331.074 185.02C335.161 185.41 335.297 185.284 334.452 181.922C332.057 172.395 321.867 157.218 319.471 159.61ZM352.365 162.282C348.973 166.147 346.737 171.864 345.973 178.629C345.27 184.842 345.394 185.243 348.02 185.243C350.372 185.243 351.164 183.994 353.023 177.369C356.242 165.891 356.869 161.708 355.494 160.86C354.823 160.445 353.415 161.085 352.365 162.282ZM234.715 169.905C224.834 174.572 221.263 182.053 222.396 195.705L223.107 204.276L218.254 209.24C215.584 211.97 212.802 215.656 212.072 217.431C211.31 219.283 208.071 222.102 204.468 224.051C201.015 225.918 197.431 228.862 196.502 230.594C193.949 235.356 195.609 264.673 199.515 283.819C200.176 287.058 199.943 287.283 195.926 287.283C190.097 287.283 186.143 291.565 186.143 297.878C186.143 304.891 191.566 311.914 204.311 321.41L209.231 325.076H203.995C197.508 325.076 193.106 328.79 194.242 333.305C194.938 336.079 194.591 336.301 188.988 336.66L182.989 337.044L182.603 344.55C182.391 348.678 182.545 353.36 182.945 354.954L183.673 357.85L255.243 357.525L326.813 357.2L327.179 346.807L327.546 336.414H318.032C312.8 336.414 308.537 335.988 308.56 335.469C308.581 334.95 309.433 333.423 310.452 332.079C313.886 327.545 311.595 314.972 307.061 313.463C304.664 312.665 307.114 309.959 310.234 309.959C311.789 309.959 313.742 309.279 314.575 308.447C316.382 306.643 316.592 300.34 314.88 299.284C314.216 298.873 316.264 294.273 319.434 289.06C322.604 283.847 324.909 279.294 324.557 278.942C323.973 278.359 301.763 283.544 297.043 285.367C294.507 286.346 281.527 270.793 280.245 265.238C279.765 263.159 277.012 253.872 274.128 244.6C268.323 225.945 265.42 221.687 256.727 219.087C251.034 217.384 250.898 217.142 254.084 214.364C259.072 210.015 261.143 203.897 261.384 192.801C261.513 186.912 262.042 181.024 262.56 179.717C265.97 171.122 246.593 164.294 234.715 169.905ZM358.133 175.774C356.662 176.803 354.862 179.354 354.133 181.443C352.889 185.009 353.001 185.243 355.96 185.243C358.364 185.243 359.546 184.207 360.94 180.874C363.948 173.687 363.161 172.258 358.133 175.774ZM242.472 183.586C242.023 184.036 241.654 185.939 241.654 187.817C241.654 192.047 238.452 195.147 236.302 193C235.499 192.198 233.82 191.541 232.571 191.541C229.037 191.541 229.847 195.677 234.188 199.809C237.384 202.849 237.961 204.226 237.433 207.532C237.08 209.744 235.567 213.206 234.071 215.225C231.805 218.287 231.498 219.868 232.231 224.745C233.254 231.556 235.669 232.363 241.093 227.704L244.457 224.815L241.799 220.46C238.176 214.527 238.412 213.803 243.651 214.784C252.898 216.516 259.24 207.524 259.289 192.612L259.317 184.235L254.586 184.424C251.984 184.527 248.377 184.198 246.572 183.691C244.768 183.184 242.922 183.136 242.472 183.586ZM322.624 190.597C323.023 193.397 323.266 193.431 342.898 193.47C362.755 193.509 362.768 193.507 362.768 190.636C362.768 187.763 362.76 187.762 342.494 187.762H322.222L322.624 190.597ZM324.187 196.744C323.892 197.222 323.942 198.373 324.3 199.302C324.802 200.608 329.014 200.976 342.912 200.927C359.85 200.866 360.876 200.723 360.876 198.41C360.876 196.095 359.858 195.954 342.801 195.917C332.86 195.895 324.484 196.267 324.187 196.744ZM326.182 204.148C326.182 204.527 327.066 206.098 328.146 207.637C329.954 210.216 331.116 210.438 342.83 210.438C353.467 210.438 355.826 210.076 357.227 208.233C360.663 203.713 359.44 203.309 342.583 203.383C333.562 203.423 326.182 203.767 326.182 204.148ZM246.624 223.384C245.155 227.562 243.664 229.116 238.816 231.52C235.52 233.154 232.823 235.265 232.823 236.21C232.823 237.155 231.076 239.396 228.941 241.19C220.754 248.068 208.852 243.565 208.852 233.587C208.852 230.99 209.786 227.873 210.948 226.592C212.1 225.319 212.724 223.961 212.334 223.573C211.19 222.429 199.148 229.027 198.286 231.268C196.366 236.265 198.156 265.967 201.322 281.614L202.596 287.913L212.978 291.942C218.689 294.158 227.051 296.574 231.561 297.311C236.072 298.049 241.65 298.963 243.959 299.342C247.697 299.957 248.112 299.739 247.744 297.355C247.436 295.355 243.297 292.576 231.334 286.337L215.338 277.996L214.933 268.028C214.711 262.545 214.883 257.844 215.314 257.579C216.325 256.962 217.652 264.97 217.67 271.79L217.684 277.082L233.769 285.175C242.616 289.624 251.842 293.673 254.27 294.169C259.218 295.181 268.148 300.501 268.148 302.436C268.148 303.129 266.009 302.283 263.397 300.556C260.783 298.829 256.752 297.038 254.437 296.575C250.813 295.852 250.291 296.054 250.673 298.033C250.917 299.299 252.734 300.762 254.721 301.292C259.192 302.486 263.115 305.915 263.06 308.58C263.027 310.119 262.447 309.905 260.58 307.668L258.141 304.747L249.296 307.592C244.431 309.157 240.671 310.658 240.943 310.928C242.275 312.259 261.048 316.273 261.801 315.387C263.249 313.684 278.241 289.824 278.241 289.221C278.241 288.912 275.545 286.608 272.248 284.104C267.745 280.681 265.895 278.238 264.802 274.283L263.349 269.017L263.225 273.629C263.157 276.165 264.229 281.834 265.608 286.226C266.987 290.618 268.123 295.015 268.132 295.997C268.163 299.43 266.418 296.003 263.527 286.956C261.314 280.031 260.609 274.878 260.595 265.552C260.586 258.796 261.099 253.27 261.735 253.27C262.902 253.27 265.114 261.926 266.493 271.889C267.14 276.564 268.179 278.028 274.317 282.903C281.735 288.795 283.548 289.339 288.937 287.293L292.228 286.045L285.973 278.541C281.65 273.352 279.085 268.78 277.663 263.727C271.238 240.885 266.754 228.392 264.094 225.913C262.507 224.434 258.335 222.098 254.824 220.723L248.438 218.221L246.624 223.384ZM377.908 253.27C377.908 261.447 378.361 265.736 379.169 265.238C379.863 264.809 380.431 259.424 380.431 253.27C380.431 247.116 379.863 241.73 379.169 241.302C378.361 240.803 377.908 245.093 377.908 253.27ZM132.203 253.585C129.669 256.748 129.391 260.493 131.24 266.578C133.749 274.836 133.649 277.209 130.414 286.466L127.673 294.309L131 301.33C135.332 310.473 136.969 318.03 136.14 325.065C135.641 329.295 135.814 330.263 136.817 328.856C139.316 325.348 138.349 313.588 134.899 305.55C130.203 294.599 130.089 293.285 133.146 285.178C135.897 277.88 135.901 277.773 133.659 267.903L131.405 257.972L134.313 255.62C138.083 252.573 138.958 252.65 142.675 256.362C146.847 260.527 146.654 265.712 141.987 274.882C137.536 283.628 137.348 286.388 140.698 293.76C143.729 300.432 143.904 308.703 141.277 321.276C140.051 327.147 139.619 332.965 140.135 336.706C141.412 345.973 143.477 345.508 142.518 336.168C141.942 330.551 142.305 325.788 143.735 320.217C146.457 309.604 146.303 301.326 143.249 294.212C139.929 286.478 140.062 283.462 144.073 275.589C148.501 266.892 148.693 259.605 144.606 255.261C141.273 251.719 134.439 250.794 132.203 253.585ZM94.0827 268.265C91.0838 270.277 93.192 270.939 98.198 269.558C107.129 267.097 115.493 271.326 115.493 278.303C115.493 280.469 114.887 280.728 111.2 280.13C107.743 279.57 106.638 279.936 105.527 282.007C102.595 287.479 108.15 291.596 113.628 288.012C116.588 286.074 116.751 286.139 118.815 290.112C119.987 292.367 121.173 293.542 121.451 292.723C121.728 291.904 121.068 289.522 119.986 287.431C118.902 285.34 118.017 281.648 118.017 279.227C118.017 276.415 116.939 273.575 115.033 271.362C112.463 268.379 110.93 267.838 103.994 267.458C99.5631 267.217 95.1033 267.579 94.0827 268.265ZM165.237 269.512C158.517 272.559 152.494 280.003 150.969 287.147C149.224 295.312 150.883 296.56 152.919 288.615C155.141 279.944 158.248 275.778 165.264 272.062C168.422 270.39 171.004 268.595 171.004 268.074C171.004 266.853 171.22 266.798 165.237 269.512ZM362.428 277.734C353.291 281.486 347.19 286.095 343.008 292.407C340.017 296.919 339.902 297.564 341.619 300.178C345.25 305.712 353.387 312.621 360.245 315.995C366.235 318.941 368.74 319.407 378.565 319.407C388.881 319.407 390.733 319.021 398.369 315.266C407.477 310.789 417.018 301.395 417.018 296.903C417.018 292.709 403.079 280.355 394.902 277.3C385.038 273.614 372.039 273.789 362.428 277.734ZM427.92 279.251C425.069 285.222 426.085 286.088 429.49 280.588C432.378 275.92 432.721 274.686 431.129 274.686C430.564 274.686 429.12 276.74 427.92 279.251ZM371.33 277.23C368.058 277.787 362.776 279.543 359.59 281.131C353.642 284.099 342.583 294.774 342.583 297.552C342.583 300.948 356.068 312.151 363.519 314.943C373.457 318.668 388.249 318.173 397.222 313.816C404.465 310.3 414.494 300.668 414.494 297.229C414.494 294.089 404.849 284.426 398.471 281.176C394.032 278.916 389.735 277.833 380.431 276.627C378.696 276.403 374.601 276.674 371.33 277.23ZM107.88 282.272C107.008 282.81 106.658 284.197 107.104 285.355C108.127 288.018 113.424 287.443 113.964 284.611C114.403 282.312 110.344 280.75 107.88 282.272ZM318.508 281.502C318.219 281.787 309.749 284.142 299.688 286.735C289.627 289.328 280.664 292.016 279.771 292.709C277.788 294.247 264.064 315.119 264.652 315.706C264.883 315.937 273.712 314.046 284.273 311.504C303.197 306.95 303.473 306.832 303.473 303.454C303.473 299.807 307.639 295.843 310.371 296.89C311.619 297.369 321.135 283.784 321.135 281.524C321.135 280.836 319.2 280.82 318.508 281.502ZM167.51 284.198C163.528 286.984 162.124 290.147 159.457 302.339C157.593 310.854 155.906 314.839 151.396 321.373C144.947 330.714 143.301 336.976 146.284 340.823C148.11 343.179 148.189 342.975 147.507 337.668C146.827 332.392 147.23 331.321 153.232 322.448C158.55 314.59 160.024 311.156 161.588 303.003C162.631 297.555 164.496 291.366 165.731 289.246C169.502 282.781 177.312 283.805 177.312 290.764C177.312 295.879 172.481 304.119 162.183 316.574C151.337 329.693 148.915 334.496 149.947 340.845L150.659 345.232H140.603C131.068 345.232 130.354 345.035 126.805 341.41C123.571 338.107 123.063 336.642 123.063 330.639C123.063 322.12 121.224 318.415 113.621 311.617C109.266 307.723 107.834 305.588 108.141 303.441C109.079 296.853 120.073 300.854 125.802 309.868C129.184 315.191 129.435 316.409 129.101 325.925C128.793 334.707 129.123 336.734 131.34 339.703C135.375 345.105 137.439 344.814 133.716 339.368C130.761 335.046 130.491 333.748 131.208 327.317C131.656 323.296 131.407 317.868 130.643 315.037C128.853 308.398 121.269 300.532 114.998 298.813C103.729 295.721 102.191 303.979 112.314 313.223C119.756 320.018 121.863 324.251 120.999 330.67C120.446 334.781 120.935 336.696 123.489 340.433L126.669 345.081L123.92 345.472C121.718 345.784 121.09 346.841 120.768 350.773C120.546 353.474 120.891 356.025 121.531 356.442C122.541 357.098 120.182 401.85 117.425 434.361L116.65 443.494H140.042C161.502 443.494 163.429 443.311 163.376 441.289C163.344 440.078 162.005 420.661 160.4 398.143C158.635 373.381 157.945 356.9 158.653 356.442C159.298 356.025 159.643 353.474 159.421 350.773C159.069 346.471 158.589 345.813 155.549 345.464C152.303 345.091 152.08 344.677 152.08 339.039C152.08 332.407 154.669 328.006 166.226 314.998C172.946 307.435 179.835 294.897 179.835 290.231C179.835 286.748 175.726 282.244 172.547 282.244C171.313 282.244 169.046 283.124 167.51 284.198ZM372.562 285.414C368.761 287.542 365.292 293.243 365.292 297.361C365.292 302.077 369.097 307.577 373.684 309.49C382.419 313.135 391.785 306.782 391.785 297.212C391.785 287.51 380.828 280.786 372.562 285.414ZM193.997 289.541C189.937 290.171 186.994 295.142 187.992 299.682C189.07 304.585 196.36 312.907 205.389 319.545C212.319 324.638 213.095 324.904 219.015 324.203C223.942 323.621 225.813 323.932 227.715 325.651C230.026 327.739 230.604 327.676 240.207 324.279C245.746 322.321 250.053 320.358 249.78 319.918C249.508 319.478 245.865 318.445 241.684 317.625C234.955 316.302 234.085 315.789 234.085 313.15C234.085 310.773 235.147 309.815 239.326 308.425L244.567 306.68L230.18 301.201C222.266 298.188 213.712 294.687 211.172 293.423C205.633 290.668 197.942 288.93 193.997 289.541ZM382.668 292.576C381.679 295.258 382.998 297.361 385.67 297.361C387.544 297.361 388.075 296.65 387.774 294.54C387.327 291.42 383.62 289.994 382.668 292.576ZM434.049 297.361C434.478 298.054 437.066 298.621 439.801 298.621C442.536 298.621 444.773 298.054 444.773 297.361C444.773 296.669 442.184 296.102 439.021 296.102C435.508 296.102 433.572 296.592 434.049 297.361ZM306.717 300.6C305.626 301.69 304.735 303.067 304.735 303.66C304.735 304.254 305.626 305.631 306.717 306.72C307.808 307.809 309.187 308.699 309.781 308.699C310.375 308.699 311.754 307.809 312.845 306.72C313.935 305.631 314.827 304.254 314.827 303.66C314.827 303.067 313.935 301.69 312.845 300.6C311.754 299.512 310.375 298.621 309.781 298.621C309.187 298.621 307.808 299.512 306.717 300.6ZM239.131 301.9C244.639 304.465 253.009 305.714 253.009 303.971C253.009 303.267 249.797 302.29 245.872 301.801C241.947 301.311 237.832 300.671 236.725 300.377C235.62 300.084 236.702 300.769 239.131 301.9ZM425.854 310.83C425.861 312.579 430.996 320.356 431.688 319.667C432.492 318.863 428.874 311.677 427.119 310.594C426.42 310.163 425.851 310.269 425.854 310.83ZM276.348 315.631C267.328 317.971 253.419 322.092 245.439 324.789C232.132 329.288 230.898 329.972 230.532 333.054L230.132 336.414H267.342H304.552L307.166 333.095C310.335 329.072 310.598 321.764 307.723 317.665C305.546 314.56 298.762 311.166 294.997 311.297C293.761 311.341 285.369 313.291 276.348 315.631ZM237.239 313.436C238.742 314.914 256.642 319.348 257.529 318.463C257.868 318.124 254.293 316.898 249.585 315.738C244.876 314.577 239.888 313.306 238.5 312.912C236.836 312.44 236.407 312.618 237.239 313.436ZM210.872 330.798C207.234 334.431 209.189 335.764 218.731 336.155C227.037 336.495 227.776 336.32 227.776 334.024C227.776 330.862 227.271 330.59 219.444 329.536C214.276 328.84 212.583 329.09 210.872 330.798ZM377.908 382.418V433.61L374.22 437.292L370.532 440.974H297.333H224.133L220.593 437.937L217.053 434.899L216.422 404.868C216.056 387.474 215.348 375.735 214.738 376.97C214.157 378.144 213.874 391.549 214.107 406.759C214.57 437.097 214.657 437.436 222.98 441.733C228.159 444.407 365.891 444.33 372.316 441.65C380.252 438.339 380.431 437.021 380.431 381.88C380.431 350.508 379.976 332.503 379.169 332.005C378.337 331.491 377.908 348.611 377.908 382.418ZM121.801 350.867V354.051H140.183C158.523 354.051 158.562 354.045 158.161 351.216C157.766 348.447 157.341 348.374 139.779 348.033L121.801 347.683V350.867ZM124.325 363.499C124.325 369.81 124.577 370.438 127.163 370.542C130.606 370.682 150.574 370.672 153.657 370.53C155.48 370.445 155.865 369.22 155.865 363.499V356.57H140.095H124.325V363.499ZM410.022 369.741C406.265 373.491 406.119 375.922 409.448 379.246C411.337 381.132 411.966 383.427 411.952 388.379C411.93 396.194 411.416 397.116 405.83 399.373C396.762 403.038 394.165 413.919 400.608 421.245C405.05 426.297 410.512 427.76 416.15 425.406C421.091 423.344 423.136 420.971 425.242 414.856C426.733 410.526 427.456 409.987 433.892 408.418C440.126 406.899 441.141 406.933 442.934 408.723C447.615 413.4 455.43 409.164 454.645 402.378C453.822 395.266 444.307 394.521 441.204 401.323C440.21 403.5 438.078 404.629 432.684 405.835C425.614 407.414 425.445 407.387 422.831 404.213C421.369 402.438 418.895 400.326 417.333 399.519C414.873 398.25 414.494 397.057 414.494 390.584C414.494 384.433 414.935 382.879 416.989 381.781C422.981 378.578 423.343 370.729 417.619 368.124C413.394 366.203 413.611 366.156 410.022 369.741ZM123.753 374.11C123.477 374.558 123.112 379.157 122.943 384.329L122.637 393.733L140.24 394.081L157.843 394.429L157.407 385.263C157.166 380.221 156.766 375.459 156.517 374.681C156.031 373.155 124.683 372.61 123.753 374.11ZM128.127 384.275C125.837 385.687 127.605 389.606 130.298 389.087C131.507 388.856 132.673 387.751 132.888 386.633C133.349 384.242 130.481 382.821 128.127 384.275ZM138.22 384.275C135.93 385.687 137.698 389.606 140.391 389.087C141.6 388.856 142.766 387.751 142.981 386.633C143.442 384.242 140.574 382.821 138.22 384.275ZM148.279 384.935C146.426 387.164 147.712 389.324 150.893 389.324C152.455 389.324 153.342 388.46 153.342 386.939C153.342 383.891 150.185 382.641 148.279 384.935ZM121.35 410.425C119.845 419.519 118.541 418.929 140.095 418.929C161.929 418.929 160.831 419.473 158.861 409.638L158.073 405.701H140.102H122.132L121.35 410.425ZM121.158 422.098C120.844 422.606 120.211 427.06 119.751 431.997L118.916 440.974H139.913H160.911L160.762 434.991C160.68 431.699 160.249 427.306 159.804 425.227L158.995 421.448L140.362 421.311C130.114 421.236 121.472 421.59 121.158 422.098ZM286.441 425.857C286.87 426.55 292.012 427.117 297.87 427.117C304.129 427.117 308.519 426.598 308.519 425.857C308.519 425.11 303.869 424.598 297.09 424.598C289.792 424.598 285.943 425.052 286.441 425.857ZM128.425 429.298C127.558 429.599 126.848 430.972 126.848 432.349C126.848 434.22 127.561 434.75 129.674 434.449C131.228 434.227 132.675 433.125 132.89 432C133.309 429.803 130.995 428.402 128.425 429.298ZM138.22 429.627C135.876 431.073 137.636 434.676 140.686 434.676C142.359 434.676 143.249 433.848 143.249 432.291C143.249 429.54 140.618 428.145 138.22 429.627ZM148.279 430.287C146.426 432.515 147.712 434.676 150.893 434.676C152.455 434.676 153.342 433.811 153.342 432.291C153.342 429.242 150.185 427.993 148.279 430.287Z" fill="black"/>
<rect x="336.7" y="260.7" width="149" height="68" fill="#FFEDD2"/>
<path d="M400.55 281.847V313.418C400.55 315.01 399.171 315.77 397.5 316.956C396.158 317.911 394.45 316.727 394.45 315.166V284.318C394.45 283.674 394.224 283.061 393.492 282.686C392.76 282.311 369.891 270.288 369.891 270.288C369.522 270.151 367.912 269.135 365.765 270.239C363.724 271.288 362.614 272.429 362.33 272.966L387.279 286.636C387.941 286.984 388.35 287.52 388.35 288.21V321.156C388.342 321.527 388.234 321.89 388.035 322.204C387.837 322.519 387.557 322.773 387.224 322.94C386.908 323.096 386.561 323.176 386.209 323.175C385.795 323.179 385.387 323.069 385.032 322.858C384.376 322.458 361.321 308.321 359.799 307.403C359.067 306.964 358.21 306.064 358.192 305.397L357.85 274.024C357.85 273.42 357.78 272.356 358.731 270.877C360.857 267.57 368.275 263.81 372.029 265.759L399.476 279.651C400.138 279.993 400.55 280.676 400.55 281.847Z" fill="black"/>
<defs>
<filter id="filter0_f_2309_172" x="-4.57764e-05" y="-4.57764e-05" width="560.4" height="560.4" filterUnits="userSpaceOnUse" color-interpolation-filters="sRGB">
<feFlood flood-opacity="0" result="BackgroundImageFix"/>
<feBlend mode="normal" in="SourceGraphic" in2="BackgroundImageFix" result="shape"/>
<feGaussianBlur stdDeviation="46.35" result="effect1_foregroundBlur_2309_172"/>
</filter>
</defs>
</svg>
